<svg width="230" height="71" xmlns="http://www.w3.org/2000/svg">
    <defs>
        <linearGradient x1="0%" y1="50%" x2="100%" y2="50%" id="a">
            <stop stop-color="#001367" offset="0%"/>
            <stop stop-color="#002BA0" offset="100%"/>
        </linearGradient>
        <linearGradient x1="98.215%" y1="50%" x2="-2.411%" y2="50%" id="b">
            <stop stop-color="#00A0E1" offset="0%"/>
            <stop stop-color="#009EDF" offset="1%"/>
            <stop stop-color="#0381C6" offset="16%"/>
            <stop stop-color="#0064AE" offset="33%"/>
            <stop stop-color="#004E9B" offset="50%"/>
            <stop stop-color="#004694" offset="71%"/>
            <stop stop-color="#004492" offset="100%"/>
        </linearGradient>
        <linearGradient x1="0%" y1="50%" x2="100%" y2="50%" id="c">
            <stop stop-color="#EEBB05" offset="0%"/>
            <stop stop-color="#FFE267" offset="100%"/>
        </linearGradient>
    </defs>
    <g transform="translate(0 .116)" fill="none" fill-rule="evenodd">
        <rect fill="url(#a)" width="230" height="70" rx="10"/>
        <g fill-rule="nonzero">
            <path d="M69.914 45.996 62.046 37.9a3.282 3.282 0 0 1 0-4.543l7.868-8.096a3.064 3.064 0 0 1 4.416 0l7.87 8.096a3.282 3.282 0 0 1 0 4.543l-7.867 8.096a3.064 3.064 0 0 1-4.419 0z" fill="#FFF"/>
            <path d="m1.617 9.945 7.869-8.098a2.27 2.27 0 0 1 1.63-.695c.61 0 1.197.25 1.629.695l7.868 8.098c.433.444.676 1.047.676 1.676s-.243 1.231-.676 1.676l-7.851 8.097a2.27 2.27 0 0 1-1.63.696 2.27 2.27 0 0 1-1.63-.696l-7.87-8.097a2.412 2.412 0 0 1-.03-3.332l.015-.02z" fill="url(#b)" transform="translate(61 24)"/>
            <path d="M78.535 33.187c-.045-.14-.015-2.332-1.524-2.534-.99-.14-1.893.556-2.582 1.436l3.047 1.5-1.455 3.135c1.095.247 2.236.196 2.928-.572 1.013-1.172-.368-2.826-.414-2.965zm-5.962 3.075c-.63.294-2.666 4.374-.952 6.042 1.112 1.082 2.749-.325 2.869-.392.12-.067 2.268.016 2.476-1.568.352-2.381-3.716-4.259-4.393-4.082zm-.495-1.468c.63-.294 2.667-4.372.952-6.042-1.112-1.08-2.748.325-2.883.392-.136.066-2.269-.016-2.477 1.568-.339 2.367 3.747 4.252 4.408 4.082zm-.495.98c-.286-.649-4.252-2.744-5.873-.98-1.051 1.144.315 2.828.381 2.951.067.124-.015 2.334 1.524 2.548 2.315.343 4.132-3.845 3.968-4.525v.006zm-3.47 6.289.81.835a6.119 6.119 0 0 0 1.504-3.046c-.061-.014-.437-.06-.482-.076a4.47 4.47 0 0 1-1.833 2.28v.007z" fill="#FFF"/>
            <path fill="#E1001A" d="m72.857 35.256 1.344-2.884 2.803 1.383-1.344 2.884z"/>
            <path fill="#A70000" d="m74.05 32.712.156-.334 2.803 1.383-.156.334z"/>
            <path fill="#A70000" d="m72.863 35.266 1.344-2.883.338.166-1.344 2.884z"/>
        </g>
        <path d="M89.104 36.116h2.963v-1.764h-2.963v-1.254h3.613v-1.87H87v8.152h5.96v-1.868h-3.856v-1.396zm9.165-.111c0 .923-.387 1.532-1.296 1.532-.935 0-1.309-.628-1.309-1.532v-4.777h-2.106v4.982c0 1.8 1.082 3.39 3.426 3.39 2.498 0 3.415-1.84 3.415-3.39v-4.982h-2.133l.003 4.777zm9.534-2.104c0-1.476-.852-2.681-2.82-2.681h-3.621v8.16h2.059v-2.775h1.219l1.342 2.775h2.26l-1.7-3.135c.767-.47 1.261-1.233 1.261-2.344zm-3.022 1.003h-1.359v-1.97h1.347c.61 0 .953.337.953 1.003a.926.926 0 0 1-.258.703.872.872 0 0 1-.684.264h.001zM112.458 31c-2.519 0-4.128 1.91-4.128 4.284 0 2.308 1.492 4.296 4.128 4.296 2.554 0 4.127-2.062 4.127-4.296-.002-2.332-1.643-4.284-4.128-4.284h.001zm0 6.548c-1.115 0-1.952-.87-1.952-2.264 0-1.361.812-2.264 1.952-2.264 1.27 0 1.95 1.075 1.95 2.264-.002 1.392-.814 2.264-1.951 2.264h.001zM149.76 31c-2.52 0-4.128 1.91-4.128 4.284 0 2.308 1.493 4.296 4.128 4.296 2.554 0 4.128-2.062 4.128-4.296-.002-2.332-1.643-4.284-4.13-4.284h.002zm0 6.548c-1.114 0-1.952-.87-1.952-2.264 0-1.361.812-2.264 1.952-2.264 1.269 0 1.95 1.075 1.95 2.264-.001 1.392-.817 2.264-1.952 2.264h.002zm-26.355-6.32-1.888 3.554-1.929-3.554h-2.011l-.369 8.152h2.024l.152-4.785 1.545 2.79h1.155l1.393-2.79.19 4.785h2.134l-.374-8.152h-2.022zm3.309 8.152h2.105v-8.152h-2.105v8.152zm5.281-8.152h-2.106v8.152h5.59v-1.906h-3.484v-6.246zm6.379 0h-2.106v8.152h5.59v-1.906h-3.484v-6.246zm4.29 8.152h2.105v-8.152h-2.106v8.152zm16.949-3.606-3.048-4.546h-1.91v8.152h2.082v-4.683l3.164 4.683h1.796v-8.152h-2.084v4.546zm5.254-2.533c0-.35.248-.516.743-.516.573 0 1.431.354 1.922.723l1.092-1.472A4.646 4.646 0 0 0 165.73 31c-2.217 0-3.086 1.283-3.086 2.509 0 2.544 3.776 2.493 3.776 3.557 0 .43-.457.65-.914.65a3.028 3.028 0 0 1-2.046-.907l-1.209 1.579c.726.715 1.843 1.2 3.292 1.2 1.833-.008 3.213-1.305 3.213-2.716 0-2.644-3.887-2.477-3.887-3.633l-.001.002z" fill="#FFF" fill-rule="nonzero"/>
        <path d="m147.777 40.35 3.89 2.898V40.63h1.67v6.033l-3.89-2.905v2.624h-1.67V40.35zm-3.88.064c1.924 0 3.257 1.266 3.257 3.093 0 1.826-1.332 3.093-3.256 3.093-1.925 0-3.258-1.267-3.258-3.093 0-1.827 1.333-3.093 3.258-3.093zm-35.911-.065v6.033h-1.67v-2.318l-1.375 1.3-1.376-1.3v2.318h-1.67V40.35l3.046 2.804 3.045-2.804zm2.287.283 1.2 1.865 1.2-1.865h1.914l-2.29 3.563v2.187h-1.67V44.16l-2.268-3.527h1.914zm13.15-.283v6.033h-1.67v-2.318l-1.374 1.3-1.376-1.3v2.318h-1.67V40.35l3.046 2.804 3.045-2.804zm2.865.283v5.75h-1.67v-5.75h1.67zm3.03 0v4.303h2.784v1.447h-4.454v-5.75h1.67zm5.268 0v4.303h2.784v1.447h-4.455v-5.75h1.67zm5.293 0v5.75h-1.67v-5.75h1.67zm4.019 1.365c-.909 0-1.538.618-1.538 1.51 0 .842.556 1.44 1.388 1.504l.15.006c.908.008 1.543-.618 1.543-1.51s-.635-1.51-1.543-1.51z" fill="#EEBB05"/>
        <path d="m58.958.074 3.394 2.857a.764.764 0 0 0 .66.138l4.173-1.35c.2-.065.301.046.225.248l-1.588 4.205a.844.844 0 0 0 .083.686l2.524 3.662c.123.176.05.31-.16.298l-4.363-.256a.791.791 0 0 0-.609.292l-2.62 3.6c-.125.174-.267.138-.325-.065l-1.111-4.351a.814.814 0 0 0-.46-.508L54.64 8.087c-.199-.07-.218-.222-.04-.338l3.686-2.42a.83.83 0 0 0 .327-.605l.045-4.513c0-.215.134-.274.3-.137zm-7.89 8.66.752.663a.166.166 0 0 0 .146.03l.924-.313c.046-.015.068.011.051.058l-.352.973a.195.195 0 0 0 .019.159l.558.846c.028.041.012.073-.034.07l-.97-.062c-.052.001-.1.026-.133.068l-.58.834c-.028.04-.06.033-.072-.015l-.247-1.007a.18.18 0 0 0-.101-.118l-.917-.334c-.046-.016-.05-.05-.01-.078l.818-.56a.194.194 0 0 0 .072-.137l.01-1.044c0-.05.03-.064.066-.033zM43.14 7.572l.779.686a.172.172 0 0 0 .15.032l.959-.323c.045-.016.07.011.052.06l-.365 1.005a.21.21 0 0 0 .02.165l.578.876c.028.043.012.074-.036.072l-1.001-.062a.18.18 0 0 0-.141.07l-.6.861c-.028.041-.063.035-.075-.015l-.255-1.042a.192.192 0 0 0-.105-.121l-.95-.346c-.047-.016-.051-.052-.01-.08l.845-.58a.2.2 0 0 0 .076-.144l.011-1.08c0-.052.03-.067.068-.034zm4.224-1.22.521.464c.03.023.066.031.102.022l.641-.22c.03-.009.047.01.035.042l-.244.686a.14.14 0 0 0 .012.111l.389.593c.019.029.007.05-.025.048l-.671-.052a.118.118 0 0 0-.093.048l-.4.583c-.019.027-.042.023-.05-.011l-.174-.7a.136.136 0 0 0-.07-.08l-.637-.235c-.03-.011-.033-.036-.007-.055l.567-.391a.138.138 0 0 0 .05-.1l.007-.729c0-.034.022-.045.047-.023zm-7.936-.415.473.421c.026.021.06.028.092.02l.576-.195c.028-.01.043 0 .032.037l-.221.617a.13.13 0 0 0 .01.1l.353.538c.017.026.006.047-.022.044l-.609-.041a.111.111 0 0 0-.085.044l-.364.528c-.018.026-.039.02-.046-.01l-.154-.64a.121.121 0 0 0-.064-.073l-.579-.213c-.027-.01-.03-.031 0-.05l.515-.355a.12.12 0 0 0 .045-.087l.007-.663c0-.032.018-.041.041-.022zM50.094.82l1.308 1.14a.29.29 0 0 0 .255.052l1.612-.536c.077-.026.117.018.087.099l-.614 1.672a.343.343 0 0 0 .032.274l.976 1.457c.047.071.019.124-.062.12l-1.678-.103a.303.303 0 0 0-.236.116l-1.009 1.434c-.05.068-.105.056-.133-.026l-.428-1.732a.322.322 0 0 0-.178-.201l-1.6-.575c-.076-.027-.084-.088-.014-.137l1.422-.96a.33.33 0 0 0 .127-.24l.017-1.796c0-.087.054-.111.116-.058z" fill="url(#c)" fill-rule="nonzero" transform="translate(61 17)"/>
    </g>
</svg>
