<svg width="230" height="71" xmlns="http://www.w3.org/2000/svg">
    <defs>
        <linearGradient x1="0%" y1="50%" x2="100%" y2="50%" id="a">
            <stop stop-color="#00A2D9" offset="0%"/>
            <stop stop-color="#00CFEE" offset="100%"/>
        </linearGradient>
        <linearGradient x1="98.232%" y1="50.007%" x2="-2.353%" y2="50.007%" id="b">
            <stop stop-color="#00A0E1" offset="0%"/>
            <stop stop-color="#009EDF" offset="1%"/>
            <stop stop-color="#0381C6" offset="16%"/>
            <stop stop-color="#0064AE" offset="33%"/>
            <stop stop-color="#004E9B" offset="50.08%"/>
            <stop stop-color="#004694" offset="71%"/>
            <stop stop-color="#004492" offset="100%"/>
        </linearGradient>
    </defs>
    <g transform="translate(0 .116)" fill="none" fill-rule="evenodd">
        <rect fill="url(#a)" width="230" height="70" rx="10"/>
        <g fill-rule="nonzero">
            <path d="M153.059 28.372c-2.42 0-4.632.994-6.22 2.607-1.856-3.376-5.404-5.666-9.472-5.666-2.761 0-5.27 1.055-7.185 2.772-2.182-3.888-6.31-6.51-11.03-6.51-5.493 0-10.17 3.557-11.936 8.515a9.148 9.148 0 0 0-5.478-1.824c-5.151 0-9.352 4.25-9.352 9.494 0 5.245 4.186 9.494 9.352 9.494 3.281 0 6.176-1.733 7.853-4.355 2.331 2.728 5.76 4.446 9.576 4.446 3.815 0 7.23-1.718 9.56-4.43 1.974 2.666 5.122 4.384 8.655 4.384 3.578 0 6.754-1.778 8.729-4.49 1.618 2.11 4.127 3.466 6.962 3.466 4.87 0 8.833-4.024 8.833-8.967 0-4.943-3.978-8.936-8.847-8.936z" fill="#FFF"/>
            <path d="M110.423 37.76c0 4.868-3.89 8.816-8.685 8.816s-8.684-3.948-8.684-8.816c0-4.867 3.89-8.816 8.684-8.816 4.795 0 8.685 3.949 8.685 8.816z" fill="#004494"/>
            <path d="M161.238 37.323c0 4.581-3.652 8.289-8.165 8.289-4.513 0-8.165-3.708-8.165-8.289 0-4.581 3.652-8.288 8.165-8.288 4.499 0 8.165 3.707 8.165 8.288zM131.191 34.475c0 6.751-5.389 12.222-12.04 12.222-6.65 0-12.024-5.47-12.024-12.222 0-6.751 5.389-12.222 12.025-12.222 6.65 0 12.04 5.47 12.04 12.222z" fill="#E2001A"/>
            <path d="M147.55 36.314c0 5.696-4.557 10.322-10.168 10.322-5.612 0-10.17-4.626-10.17-10.322 0-5.697 4.558-10.323 10.17-10.323 5.611 0 10.169 4.626 10.169 10.323z" fill="#004494"/>
            <path d="M105.568 39.93c-3.236 1.342-4.439 1.311-4.928.422-.906-1.627-1.633-5.576-1.87-8.363-.862.27-2.436 1.1-3.356 1.612.252 4.355 1.128 7.942 2.286 9.509.861 1.175 2.034 1.673 3.43 1.673 2.004 0 5.448-1.673 5.448-1.673l-1.01-3.18zM153.266 32.591c-2.894.86-4.542 3.934-3.71 6.857.845 2.939 3.859 4.611 6.754 3.768 2.895-.86 4.542-3.934 3.711-6.857-.846-2.939-3.875-4.612-6.755-3.768zm2.806 7.987a2.61 2.61 0 0 1-3.251-1.808c-.4-1.417.386-2.893 1.781-3.3a2.61 2.61 0 0 1 3.252 1.808 2.663 2.663 0 0 1-1.782 3.3zM118.172 24.213c-4.661 0-8.714 3.842-9.056 8.574-.326 4.732 3.177 8.575 7.853 8.575 4.677 0 8.715-3.843 9.056-8.575.342-4.732-3.192-8.574-7.853-8.574zm-1.47 12.281c-2.241 0-3.934-1.838-3.77-4.114.163-2.275 2.108-4.114 4.35-4.114 2.24 0 3.933 1.839 3.77 4.114-.163 2.26-2.108 4.114-4.35 4.114zM144.463 31.07c-4.008-1.673-7.363-2.352-11.698-2.321-.594 1.28-1.188 3.496-1.188 3.496 1.351-.015 2.702.075 4.038.226a77.717 77.717 0 0 0-1.425 7.414c-.252 1.808.609 3.255 2.375 3.602.55.105 1.084.21 1.633.316a77.421 77.421 0 0 0 2.183-10.398 32.85 32.85 0 0 1 3.83 1.311c-.015.015.326-1.718.252-3.647z" fill="#FFF"/>
            <g>
                <path d="m75.73 45.898-7.78-7.897a3.172 3.172 0 0 1 0-4.43l7.78-7.897a3.059 3.059 0 0 1 4.364 0l7.779 7.897a3.172 3.172 0 0 1 0 4.43l-7.78 7.897a3.059 3.059 0 0 1-4.364 0z" fill="#FFF"/>
                <path d="M.772 8.575 8.551.678a2.252 2.252 0 0 1 3.221 0l7.78 7.897c.89.904.89 2.366 0 3.27l-7.765 7.896c-.89.905-2.33.905-3.221 0l-7.78-7.896a2.321 2.321 0 0 1-.014-3.27z" fill="url(#b)" transform="translate(67.742 25.569)"/>
                <path d="M84.25 33.405c-.044-.136-.015-2.275-1.514-2.471-.98-.136-1.87.542-2.553 1.401l3.013 1.462-1.44 3.06c1.084.24 2.212.195 2.895-.558 1.01-1.146-.356-2.758-.4-2.894zm-5.893 2.999c-.624.286-2.628 4.265-.936 5.892 1.099 1.055 2.717-.316 2.836-.376.134-.046 2.242.015 2.45-1.523.34-2.335-3.682-4.159-4.35-3.993zm-.49-1.432c.623-.286 2.627-4.264.935-5.892-1.098-1.055-2.717.317-2.85.377-.134.045-2.242-.015-2.45 1.522-.326 2.32 3.712 4.16 4.365 3.993zm-.49.95c-.282-.633-4.201-2.668-5.805-.95-1.039 1.116.312 2.758.372 2.879.044.135-.015 2.275 1.499 2.486 2.3.332 4.097-3.752 3.934-4.415zm-3.43 6.133.802.814c.535-.558 1.203-1.522 1.485-2.969-.06-.015-.43-.06-.475-.075-.401 1.13-1.188 1.823-1.811 2.23z" fill="#FFF"/>
                <path fill="#E1001A" d="m78.644 35.422 1.328-2.813 2.771 1.35-1.328 2.812z"/>
                <path fill="#A70000" d="m79.817 32.941.154-.326 2.77 1.35-.153.325z"/>
                <path fill="#A70000" d="m78.65 35.427 1.33-2.812.334.163-1.328 2.812z"/>
            </g>
        </g>
    </g>
</svg>
